<svg width="240" height="100" viewBox="0 0 240 100" fill="none" xmlns="http://www.w3.org/2000/svg">
<g clip-path="url(#clip0)">
<path d="M232.167 1.35431C228.396 0.0195135 242.017 0.127515 89.0747 0.0339154C2.72273 -0.0464844 8.72647 -0.300085 4.1174 3.79151C2.6374 5.1095 1.57073 6.4811 1.08699 7.66269C0.222995 9.67909 -0.173805 27.2399 0.574462 29.1718C1.25553 30.835 2.96753 31.6914 7.11633 32.355C17.8843 34.161 24.6593 39.573 26.0075 47.5178C27.1211 53.7186 24.1542 59.7926 18.0331 63.8306C14.8022 65.9846 11.4017 67.2526 6.93927 67.9058C3.06087 68.4766 1.82513 68.9626 0.790999 70.3066C-0.243135 71.597 -0.261273 89.5073 0.724861 92.2721C1.40486 94.1509 1.84966 94.6589 4.41766 96.6693C7.01979 98.7057 7.63526 99.0273 10.1739 99.5581C13.7062 100.276 226.447 100.072 230.258 99.2849C232.386 98.8505 233.107 98.5017 235.481 96.6437C237.682 94.9205 238.369 94.1145 238.957 92.6357C239.788 90.5925 240.185 72.9786 239.433 71.0998C238.786 69.4634 237.004 68.5526 233.267 67.997C224.899 66.6706 218.463 62.3866 215.701 56.2418C215.121 55.0346 214.649 52.565 214.552 50.7662C214.234 41.9054 221.772 34.3998 232.962 32.499C237.149 31.793 238.867 30.9318 239.561 29.265C240.321 27.3298 240.031 9.76909 239.179 7.7587C238.26 5.4791 234.705 2.26391 232.167 1.35431ZM229.636 10.0323C229.841 10.5159 230.036 14.0583 230.025 17.8723L230.038 24.8815L226.673 25.8003C216.887 28.4766 209.185 34.7738 205.9 42.8082C204.137 47.1342 204.22 53.8754 206.161 58.2478C208.138 62.8082 209.983 65.1686 214.056 68.4098C217.957 71.4634 221.315 73.1745 226.457 74.6697L229.885 75.6293L229.865 82.3425C229.876 89.7273 229.633 91.0433 227.916 91.6365C227.298 91.8521 218.068 92.0037 207.4 91.9969C192.165 92.0249 187.981 91.8729 187.81 91.3629C187.709 91.0141 187.06 90.2357 186.341 89.6733C183.91 87.7709 179.517 88.6385 178.515 91.1909C178.205 91.9709 170.965 92.0641 95.6241 92.2033C38.2625 92.3093 12.7025 92.1685 11.951 91.7941C10.2054 90.9113 9.89979 89.4885 9.95579 82.2661L9.97553 75.6061L13.1345 74.7957C18.2513 73.4709 22.5446 71.3417 26.5345 68.219C30.5931 64.9894 32.5206 62.5686 34.4203 58.2422C36.8737 52.6266 36.8539 47.2286 34.2646 41.4326C32.391 37.2202 30.4763 34.8078 26.5051 31.6998C23.0486 28.9942 19.4171 27.2822 14.0689 25.7359L10.1254 24.6423L10.1457 17.9291C10.0982 10.6255 10.4465 9.22829 12.199 8.34029C13.0246 7.90989 37.247 7.7571 95.7745 7.8103C161.268 7.8227 178.248 7.9807 178.523 8.5159C178.692 8.8647 179.343 9.64149 179.957 10.2319C181.464 11.7339 184.688 11.8343 186.51 10.4079C187.198 9.86949 187.886 9.11549 188.059 8.71389C188.267 8.1235 191.596 7.9827 207.617 7.9795C218.217 7.9867 227.242 8.10469 227.618 8.23869C228.748 8.63749 229.261 9.09509 229.636 10.0323Z" fill="#226089"/>
<path d="M183.155 19.4099C180.856 19.4939 179.345 20.4111 178.618 22.1579C178.17 23.3675 178.113 29.7851 178.589 31.6111C179.03 33.3027 180.741 34.3719 183.109 34.4491C184.791 34.4727 185.444 34.2835 186.647 33.3419C188.057 32.2387 188.125 31.9691 188.141 26.9215C188.156 21.8739 188.089 21.6051 186.686 20.5067C185.489 19.5667 184.837 19.3803 183.155 19.4099Z" fill="#226089"/>
<path d="M183.155 42.5546C180.89 42.5586 179.309 43.421 178.619 45.0334C178.066 46.3242 178.011 53.4934 178.521 54.809C179.678 57.761 183.827 58.585 186.578 56.4318C187.987 55.3286 188.022 55.0326 188.071 50.0114C188.086 45.0706 187.985 44.6682 186.684 43.6498C185.555 42.7658 184.835 42.5262 183.155 42.5546Z" fill="#226089"/>
<path d="M184.561 65.7257C182.298 65.1381 179.276 66.3257 178.549 68.1261C177.995 69.4157 177.941 76.5861 178.45 77.9005C179.506 80.6101 183.071 81.6773 186.024 80.1157C187.741 79.1997 188.123 77.8293 188.003 72.5125C187.914 68.4593 187.744 67.6269 186.752 66.9037C186.136 66.4209 185.141 65.9125 184.561 65.7257Z" fill="#226089"/>
</g>
<defs>
<clipPath id="clip0">
<rect width="240" height="100" fill="white"/>
</clipPath>
</defs>
</svg>
